<?xml version="1.0" standalone="no"?><!DOCTYPE svg PUBLIC "-//W3C//DTD SVG 1.1//EN" "http://www.w3.org/Graphics/SVG/1.1/DTD/svg11.dtd"><svg t="1710742794653" class="icon" viewBox="0 0 1904 1024" version="1.1" xmlns="http://www.w3.org/2000/svg" p-id="10901" xmlns:xlink="http://www.w3.org/1999/xlink" width="371.875" height="200"><path d="M1657.536242 879.07111H247.293714c-88.294057 0-160.758502-72.464445-160.758503-160.758503V305.687393c0-88.294057 72.464445-160.758502 160.758503-160.758503h1410.242528c88.294057 0 160.758502 72.464445 160.758502 160.758503v412.976984c-0.351769 88.294057-72.464445 160.406733-160.758502 160.406733z" fill="#FFFFFF" p-id="10902"></path><path d="M1657.536242 889.624184H247.293714c-94.274133 0-171.311577-76.685675-171.311577-171.311577V305.687393c0-94.274133 76.685675-171.311577 171.311577-171.311577h1410.242528c94.274133 0 171.311577 76.685675 171.311577 171.311577v412.976984c-0.351769 94.274133-77.037444 170.959808-171.311577 170.959807zM247.293714 155.481965c-82.665751 0-150.205428 67.187908-150.205428 150.205428v412.976984c0 82.665751 67.187908 150.205428 150.205428 150.205427h1410.242528c82.665751 0 150.205428-67.187908 150.205428-150.205427V305.687393c0-82.665751-67.187908-150.205428-150.205428-150.205428H247.293714z" fill="#313433" p-id="10903"></path><path d="M1677.587083 884.347647H227.242872c-79.851597 0-144.577121-84.776366-144.577121-188.548265V328.552387c0-104.123669 64.725524-188.548265 144.577121-188.548265h1450.344211c79.851597 0 144.577121 84.776366 144.577122 188.548265v366.895226c-0.351769 104.123669-65.077293 188.900034-144.577122 188.900034zM227.242872 149.853659c-75.278598 0-136.8382 80.203367-136.8382 178.346959v366.895225c0 98.495362 61.207832 178.34696 136.8382 178.34696h1450.344211c75.278598 0 136.8382-80.203367 136.8382-178.34696V328.552387c0-98.495362-61.207832-178.34696-136.8382-178.346959H227.242872z" fill="#313433" p-id="10904"></path><path d="M1677.587083 894.900721H227.242872c-85.479904 0-155.130196-89.349364-155.130196-199.101339V328.552387c0-109.751975 69.650292-199.10134 155.130196-199.101339h1450.344211c85.479904 0 155.130196 89.349364 155.130196 199.101339v366.895226c-0.351769 109.751975-69.650292 199.453109-155.130196 199.453108zM227.242872 160.406733c-69.650292 0-126.285125 75.278598-126.285126 167.793885v366.895225c0 92.515287 56.634833 167.793885 126.285126 167.793886h1450.344211c69.650292 0 126.285125-75.278598 126.285126-167.793886V328.552387c0-92.515287-56.634833-167.793885-126.285126-167.793885H227.242872z" fill="#313433" p-id="10905"></path><path d="M542.779801 706.704225c-11.256613-0.351769-23.568533-9.497767-36.935761-27.437993-67.187908-86.183442-116.787358-149.501889-148.798351-189.603573-6.331845 111.159052-9.849536 170.256269-10.553075 176.939883-3.165922 26.734456-11.960151 40.101683-26.734455 40.101683-15.477843 0-24.623841-13.367228-27.437994-40.101683-1.407077-16.181381-4.22123-66.836139-9.145998-153.019581-4.572999-82.665751-8.09069-133.672278-9.849536-153.723119-1.407077-11.256613 2.814153-21.106149 12.663689-29.548609 9.497767-8.09069 20.75438-11.960151 34.473377-11.960151 3.165922 0 6.683614 0.351769 11.608382 1.055308 13.367228 2.814153 23.216764 9.849536 29.900378 21.457918 8.09069 13.367228 29.19684 46.785297 63.670216 100.254208 40.453452 62.614909 68.594985 106.586053 84.776366 131.913432-5.980076-116.787358-10.201305-187.492958-13.015459-212.468568-1.407077-11.256613 3.165922-21.106149 13.015459-29.548608 9.849536-8.44246 21.457918-12.663689 35.176915-12.66369 13.718997 0 24.97561 4.22123 34.121608 12.66369 9.145998 8.44246 13.015459 18.291996 11.608382 29.548608-1.758846 18.643765-4.924768 69.650292-9.497767 153.019581-4.572999 83.01752-7.738921 133.672278-9.497768 152.316043-2.462384 27.437994-11.256613 41.156991-27.086224 41.156991h-2.462384z" fill="#FFFFFF" p-id="10906"></path><path d="M544.890416 720.774991h-2.462384c-16.181381-0.351769-31.659224-11.256613-47.840605-33.418069-52.413604-67.187908-94.625902-121.008588-125.581587-160.406733-4.924768 88.294057-7.738921 134.727585-8.44246 140.707661-4.924768 43.619375-24.623841 52.765373-40.453452 52.765372-16.181381 0-36.583992-9.145998-41.50876-52.765372v-0.35177c-1.407077-16.181381-4.22123-67.539677-9.145998-153.37135-4.572999-81.962212-8.09069-133.672278-9.849536-153.37135-1.758846-15.829612 4.22123-30.252147 17.236688-41.50876 11.960151-10.201305 26.734456-15.477843 43.619375-15.477842 3.517692 0 8.09069 0.351769 13.367228 1.055307h0.703538c17.588458 3.517692 30.603916 13.015459 39.398145 28.493301 7.738921 13.015459 29.19684 46.785297 63.318447 99.55067 22.513226 34.825146 41.156991 63.670216 55.931295 86.886981-4.572999-84.424596-8.09069-137.893507-10.201305-158.296118-1.407077-10.904844 0.703538-27.437994 17.940227-41.860529 11.960151-10.553075 27.086225-15.829612 43.971144-15.829612 17.236688 0 32.010993 5.628306 43.619374 16.181381 12.31192 11.256613 17.588458 25.679148 15.829612 41.50876-1.758846 18.643765-4.924768 69.650292-9.497767 152.316042-4.572999 83.721058-7.738921 134.024047-9.497767 152.667812-3.165922 45.378221-23.920302 54.524218-40.453452 54.524218z m-1.758846-28.141532h1.758846c8.794229 0 11.960151-15.477843 13.015458-28.141532 1.758846-18.291996 4.924768-69.650292 9.497767-151.964273 4.572999-84.072827 7.738921-134.375816 9.497767-153.37135v-0.351769c0.703538-7.035383-1.407077-12.31192-7.035383-17.588458-6.331845-5.980076-14.422535-8.794229-24.62384-8.794229-10.201305 0-18.643765 2.814153-26.030917 9.145998-8.44246 7.035383-8.794229 13.015459-8.090691 17.236689 2.814153 25.327379 7.035383 97.088286 13.015459 213.523874l2.814153 53.820681-28.84507-45.378221c-15.829612-24.97561-44.322913-69.298523-84.776366-131.561663-34.121608-53.117142-55.931295-87.23875-64.021986-100.605977-4.924768-8.44246-11.256613-13.015459-20.40261-14.774304-3.869461-0.703538-7.035383-0.703538-9.145998-0.703539-10.201305 0-18.643765 2.814153-25.327379 8.794229-7.738921 6.683614-8.09069 12.663689-7.738922 17.236689 2.110615 20.402611 5.276537 71.057369 10.201306 154.778426 4.572999 85.128135 7.738921 136.134662 9.145998 152.316043 1.407077 12.663689 4.924768 27.437994 13.718997 27.437994 8.44246 0 11.608382-19.347303 12.663689-27.437994 0.351769-4.22123 2.462384-38.342838 10.553075-176.236345l2.110615-36.583992 22.864994 28.845071c32.010993 39.749914 81.962212 103.7719 149.150121 189.603572 14.070766 18.291996 22.864995 20.75438 26.030917 20.75438z" fill="#313433" p-id="10907"></path><path d="M544.890416 710.221917h-2.110615c-12.663689-0.351769-25.679148-9.849536-39.749914-28.845071-62.966678-80.906905-111.159052-142.114737-143.170045-182.21642-5.980076 106.234284-9.497767 161.462041-9.849536 167.793885-3.165922 28.84507-13.367228 43.267606-29.900378 43.267606-17.236688 0-27.789763-14.422535-30.955685-43.267606-1.407077-16.181381-4.22123-67.539677-9.145998-153.019581-4.572999-82.313981-8.09069-134.024047-9.849537-153.723119-1.407077-12.31192 3.165922-23.568533 13.718997-32.714531 9.849536-8.44246 22.513226-13.015459 36.935761-13.015459 3.165922 0 7.035383 0.351769 11.960151 1.055308 14.422535 2.814153 25.327379 10.904844 32.714531 23.216764 8.09069 13.367228 29.548609 47.137066 63.670217 100.254208 35.528684 54.875988 60.856063 94.274133 77.389213 120.656819-5.628306-107.99313-9.849536-174.829268-12.31192-199.10134-1.407077-12.663689 3.165922-23.568533 14.422535-32.714531 10.201305-8.794229 22.864995-13.367228 37.28753-13.367228s26.734456 4.572999 36.583992 13.367228c9.849536 9.145998 14.070766 20.050842 12.663689 32.714531-1.758846 18.291996-4.924768 70.002061-9.497767 152.667812-4.572999 82.665751-7.738921 134.024047-9.497767 152.667812-3.165922 29.548609-13.367228 44.322913-31.307454 44.322913z m-2.110615-7.035383h2.110615c4.924768 0 20.402611 0 23.568533-37.991069 1.758846-18.643765 4.924768-69.650292 9.497767-152.316042 4.572999-83.01752 7.738921-134.375816 9.497767-153.019581 1.055307-10.201305-2.110615-18.995534-10.553075-26.734456-8.44246-7.738921-18.995534-11.608382-31.659223-11.608382-12.663689 0-23.920302 3.869461-32.714531 11.608382-9.145998 7.738921-13.015459 16.181381-11.960151 26.382687 2.814153 24.97561 7.035383 96.736517 13.015458 212.820336l0.703538 13.367228-7.035383-11.256613c-16.181381-25.327379-43.619375-68.594985-84.776365-131.913431-34.121608-53.117142-55.579526-86.88698-63.670216-100.254209-6.331845-10.904844-15.477843-17.588458-27.789763-20.050841-4.22123-0.703538-8.09069-1.055307-10.904844-1.055308-12.663689 0-23.568533 3.869461-32.362762 11.256613-8.794229 7.738921-12.663689 16.181381-11.256613 26.382687 2.110615 20.050842 5.276537 70.705599 10.201305 154.074888 4.572999 85.479904 7.738921 136.8382 9.145998 152.667812 2.814153 24.623841 10.553075 36.935761 23.920303 36.935761 12.663689 0 20.402611-12.31192 23.216764-36.935761 0.703538-6.683614 4.22123-66.1326 10.553074-176.588114l0.351769-9.145998 5.628307 7.035383c31.659224 39.749914 81.962212 103.420131 148.798351 189.603572 13.015459 17.588458 24.623841 26.382686 34.473377 26.734456z" fill="#313433" p-id="10908"></path><path d="M544.890416 724.292683h-2.462384c-17.236688-0.351769-33.769839-11.960151-50.654758-34.825146-49.247681-63.318447-89.349364-114.324974-119.953281-153.019581-6.331845 109.048437-7.387152 127.692202-8.09069 131.561663-5.276537 46.433528-26.734456 55.931295-43.971144 55.931295-14.422535 0-39.749914-7.387152-45.026452-55.579526v-0.351769c-1.407077-16.181381-4.572999-67.891446-9.145998-153.37135-4.572999-81.962212-8.09069-133.672278-9.849536-153.019581-2.110615-16.884919 4.572999-32.362762 18.643765-44.674683 12.663689-10.904844 28.141532-16.181381 46.081759-16.18138 3.869461 0 8.44246 0.351769 14.070766 1.055307h0.703538c18.291996 3.517692 33.0663 14.070766 42.212299 30.252147 7.738921 13.015459 29.19684 46.433528 63.318447 99.55067 18.995534 29.548609 35.528684 54.875988 48.895912 75.630367-4.22123-76.685675-7.387152-125.581587-9.497767-144.92889-2.110615-17.236688 4.572999-32.714531 19.347303-45.026451 12.663689-10.904844 28.493301-16.53315 46.433528-16.53315 18.291996 0 33.769839 5.628306 46.081759 17.236688 13.015459 11.960151 18.995534 27.437994 17.236688 44.322913-1.758846 18.643765-4.924768 69.650292-9.497767 151.964273-4.572999 82.665751-7.738921 134.375816-9.497767 153.019581-4.924768 49.59945-30.603916 56.986603-45.37822 56.986603z m-1.758846-35.176915h1.758846c7.035383 0 9.145998-20.75438 9.497767-24.97561 1.758846-18.291996 4.924768-69.650292 9.497767-151.964273 4.572999-83.01752 7.738921-134.727585 9.497767-153.37135v-0.35177c0.703538-5.980076-1.055307-10.201305-5.980076-14.774304-5.628306-5.276537-13.015459-7.738921-22.161456-7.738921-9.497767 0-17.236688 2.814153-23.568533 8.442459-7.035383 5.980076-7.387152 10.201305-7.035383 14.070766 2.814153 25.327379 7.035383 97.440055 13.015458 213.523875l3.517692 67.187908-35.880454-56.986602c-16.181381-25.327379-43.619375-68.594985-84.776365-131.561663-34.473377-53.117142-55.931295-87.23875-64.021986-100.605977-4.22123-7.387152-9.849536-11.608382-17.940227-13.367228-4.572999-0.703538-7.387152-0.703538-8.442459-0.703538-9.497767 0-16.884919 2.462384-23.216764 7.738921-6.683614 5.628306-7.035383 10.201305-6.683614 14.070766 2.110615 20.75438 5.276537 71.409138 10.201305 154.778427 4.572999 85.128135 7.738921 136.134662 9.145998 152.316042 0.703538 5.980076 3.165922 24.272071 10.201306 24.272072 2.462384 0 7.035383-6.683614 9.145998-24.623841 0.351769-4.22123 2.462384-38.342838 10.553074-175.884576l2.462384-45.729989 28.845071 35.880453c31.659224 39.749914 81.962212 103.420131 149.15012 189.603573 13.718997 18.995534 21.457918 20.75438 23.216764 20.75438z" fill="#313433" p-id="10909"></path><path d="M749.268293 466.797664c11.960151 1.407077 39.749914 3.517692 83.369289 7.035383l82.66575 7.035383c17.940227 4.572999 27.086225 13.367228 27.086225 26.030917 0 13.015459-9.145998 21.809687-27.086225 26.734456-5.628306 0.703538-33.418069 2.814153-82.66575 6.683614-42.915836 3.517692-70.35383 6.683614-83.369289 8.442459-2.110615 0.703538-3.869461 0.703538-5.628307 0l-4.924768 78.092752c18.291996 1.758846 52.413604 4.22123 102.364823 7.387152 46.785297 3.517692 75.630368 5.628306 86.886981 6.683614 21.457918 3.869461 32.010993 13.015459 32.010992 26.734456 0 14.070766-10.553075 23.216764-32.010992 27.086224l-106.234284 7.387152c-55.579526 3.869461-91.10821 7.035383-107.289591 9.497767-3.869461 0.703538-7.738921 0-11.608382-1.407076-14.070766-2.110615-22.513226-16.884919-25.679148-44.674682-2.110615-20.050842-5.628306-71.057369-10.553075-153.019581-4.572999-79.851597-8.09069-130.858124-10.553074-153.37135-1.407077-11.608382 2.814153-22.161457 12.663689-30.955686 9.145998-8.794229 20.402611-13.718997 34.121608-15.126073 2.814153-0.703538 5.628306-0.703538 8.442459 0 14.422535 1.407077 48.544143 3.869461 102.716593 8.09069 56.634833 3.869461 90.756441 6.683614 101.661284 7.387152 20.75438 3.869461 30.955685 13.015459 30.955686 26.734456 0 13.367228-10.201305 22.513226-30.955686 27.086225L844.245964 386.946067c-40.805222 3.165922-71.057369 5.276537-90.756441 7.035383l-4.572999 72.816214h0.351769z" fill="#FFFFFF" p-id="10910"></path><path d="M710.925455 725.69976c-4.22123 0-8.09069-0.703538-11.960151-2.110615-20.050842-3.869461-32.010993-22.864995-35.528684-56.634834-2.110615-20.402611-5.628306-70.705599-10.553075-153.37135-4.572999-79.499828-8.09069-130.858124-10.553074-152.667812-1.758846-15.829612 3.869461-30.955685 16.884919-42.915836 10.904844-10.553075 24.97561-16.884919 41.50876-18.643765 4.22123-0.703538 8.44246-1.055307 13.015458 0 14.774304 1.407077 47.840605 3.869461 101.661285 8.09069 56.634833 3.869461 90.756441 6.683614 102.013054 7.387153l1.407077 0.351769c36.935761 7.035383 42.564067 28.493301 42.564067 40.453452 0 14.422535-7.387152 33.0663-42.212298 40.805222l-2.110615 0.351769-71.760907 4.924768c-32.714531 2.462384-59.097217 4.572999-78.444521 5.980076l-2.814153 46.785297c14.774304 1.407077 38.342838 3.165922 70.002061 5.628306l84.072827 7.035383 1.055308 0.351769c32.714531 8.44246 37.639299 28.493301 37.639299 39.749914 0 11.256613-4.924768 31.659224-37.639299 40.101684l-1.758846 0.351769c-3.869461 0.351769-16.53315 1.758846-83.369289 6.683614-36.583992 3.165922-62.26314 5.628306-76.333906 7.738921l-3.517691 52.413604c19.699072 1.758846 49.247681 3.869461 88.294057 6.331844 47.488835 3.517692 75.982137 5.628306 86.88698 6.683614l1.407077 0.351769c37.991068 7.035383 43.619375 28.493301 43.619375 40.453453 0 12.31192-5.628306 33.769839-43.619375 40.805221l-1.758846 0.35177-106.234284 7.387152c-54.875988 3.869461-90.756441 7.035383-106.234283 9.497767-2.110615-0.703538-3.869461-0.703538-5.628307-0.703538zM707.055995 326.441773h-0.703539l-2.110615 0.351769c-10.553075 1.055307-18.995534 4.572999-25.679148 11.256613-6.683614 6.331845-9.145998 11.960151-8.442459 19.347303 2.462384 22.513226 5.980076 74.57506 10.553074 154.074888 4.924768 81.258674 8.44246 132.61697 10.553075 152.316043 2.110615 18.995534 7.035383 31.307454 13.718997 32.010993l2.110615 0.351769 1.758845 0.703538c1.055307 0.351769 2.110615 0.703538 3.517692 0.351769 16.884919-2.462384 52.061834-5.628306 108.696668-9.849536l105.530745-7.387152c19.699072-3.869461 19.699072-10.904844 19.699073-13.015459 0-5.628306-6.683614-10.201305-20.050842-12.663689-11.256613-1.055307-40.101683-3.165922-85.831673-6.331845-50.302989-3.517692-84.072827-5.980076-102.364823-7.387152l-13.718997-1.407077 7.035383-111.159052 15.829612 6.331845c13.015459-2.110615 40.805222-4.924768 84.072827-8.794229 46.785297-3.517692 74.223291-5.628306 81.258674-6.331844 15.477843-4.22123 15.477843-10.201305 15.477843-12.66369 0-2.110615 0-7.738921-15.477843-12.31192l-81.610443-7.035383c-42.212298-3.165922-70.35383-5.628306-82.665751-7.035383h-14.774304l6.331845-99.902439 11.960151-1.055308c20.050842-1.758846 50.654758-4.22123 90.756441-7.035383l70.705599-4.924768c12.663689-3.165922 18.995534-7.387152 18.995534-13.015458 0-2.110615 0-8.794229-18.995534-12.66369-11.608382-1.055307-45.72999-3.517692-100.605977-7.387152-54.875988-4.22123-88.645826-6.683614-103.068361-8.090691l-1.758846-0.351769c0 0.703538-0.351769 0.703538-0.703538 0.703539z" fill="#313433" p-id="10911"></path><path d="M710.925455 715.146685c-3.165922 0-6.331845-0.703538-9.145998-1.758846-15.477843-2.462384-24.97561-18.643765-28.141532-47.488835-2.110615-20.050842-5.628306-71.409138-10.553074-153.019581-4.572999-79.499828-8.09069-130.858124-10.553075-153.37135-1.407077-12.663689 3.165922-24.272071 13.718997-34.121608 9.497767-9.145998 21.457918-14.422535 35.880453-15.829612 3.165922-0.703538 6.331845-0.703538 9.497767 0 14.422535 1.407077 47.840605 3.869461 102.364824 8.090691 56.634833 3.869461 90.756441 6.683614 101.661284 7.387152h0.351769c22.513226 4.22123 33.769839 14.422535 33.769839 29.900378 0 15.126074-11.256613 25.327379-33.769839 30.603916h-0.703538L844.245964 390.463758c-38.342838 2.814153-67.539677 4.924768-87.590519 6.683614l-4.22123 66.132601c13.367228 1.407077 40.101683 3.517692 80.203367 6.683613l83.369288 7.035383c19.699072 5.276537 29.548609 15.126074 29.548609 29.548609 0 14.774304-9.849536 24.97561-29.548609 29.900378h-0.351769c-5.628306 0.703538-32.714531 2.814153-83.017519 6.683614-42.212298 3.517692-70.002061 6.331845-82.665751 8.44246-1.055307 0.351769-2.110615 0.351769-3.165922 0.703538l-4.572999 71.057368c18.995534 1.758846 52.061834 4.22123 98.847131 7.035383 47.488835 3.517692 75.630368 5.628306 86.886981 6.683614 23.568533 4.22123 35.176915 14.422535 35.176915 29.900378 0 15.829612-11.608382 26.030917-34.825146 30.603916h-0.351769l-106.234284 7.387153c-55.227757 3.869461-91.10821 7.035383-106.937822 9.497767-1.407077 0.703538-2.462384 0.703538-3.869461 0.703538zM707.055995 315.888698c-1.055307 0-2.110615 0-3.165923 0.351769h-0.351769c-12.663689 1.407077-23.568533 5.980076-32.010993 14.070766-8.794229 8.44246-12.663689 17.588458-11.608382 28.141532 2.462384 22.513226 5.980076 73.871522 10.553075 153.72312 4.924768 81.610443 8.44246 132.968739 10.553074 152.667811 2.814153 25.679148 10.553075 39.749914 22.513226 41.50876l1.055307 0.351769c3.165922 1.407077 6.331845 1.758846 9.497768 1.407077 16.181381-2.462384 51.358296-5.628306 107.64136-9.497767l106.234284-7.387152c19.347303-3.869461 28.84507-11.256613 28.84507-23.568533 0-11.960151-9.497767-19.347303-29.19684-23.216764-10.553075-1.055307-39.749914-3.165922-86.183442-6.331845-49.59945-3.165922-84.072827-5.980076-102.364823-7.387152l-3.517691-0.35177 5.628306-86.535211 4.572999 1.758846c0.703538 0.351769 1.758846 0.351769 3.165923 0h0.703538c12.663689-2.110615 40.805222-4.924768 83.369289-8.44246 49.247681-3.517692 76.333906-5.628306 82.313981-6.331844 16.181381-4.22123 24.272071-11.960151 24.272072-23.216764 0-10.904844-7.738921-18.291996-24.272072-22.513226l-82.313981-7.035383c-42.915836-3.165922-71.057369-5.628306-83.01752-7.035383H745.750601l4.924768-79.499828 3.165923-0.35177c20.050842-1.758846 50.654758-4.22123 90.756441-7.035383l71.409137-4.924768c18.995534-4.22123 28.141532-11.960151 28.141533-23.568533 0-11.960151-9.145998-19.347303-28.141533-23.216764-11.256613-1.055307-45.378221-3.517692-101.661284-7.387152-54.875988-4.22123-88.645826-6.683614-102.716593-8.090691h-0.351769c-2.110615-1.055307-3.165922-1.055307-4.221229-1.055307z" fill="#313433" p-id="10912"></path><path d="M710.925455 729.217451c-4.572999 0-8.794229-0.703538-13.015458-2.462384-21.457918-4.22123-34.473377-24.623841-37.991069-59.800756-2.110615-20.402611-5.628306-72.112676-10.553074-153.723119-4.572999-79.148059-8.09069-130.506355-10.553075-152.667812-2.110615-17.236688 4.22123-33.0663 17.940227-45.729989 11.608382-10.904844 26.030917-17.588458 43.267605-19.699073 4.572999-1.055307 9.145998-1.055307 14.070767 0 14.774304 1.407077 47.840605 3.869461 101.661284 7.738921 56.634833 3.869461 90.756441 6.683614 102.013054 7.387153l1.758846 0.351769c39.398145 7.738921 45.378221 30.603916 45.378221 43.971144 0 12.663689-5.980076 35.528684-44.674683 44.322913l-2.814153 0.351769-71.760907 4.924768c-30.955685 2.462384-56.283064 4.22123-75.278598 5.628306l-2.462384 40.453453c15.126074 1.407077 37.28753 3.165922 66.484369 5.276537l84.776366 7.387152 1.055307 0.35177c35.176915 9.145998 40.101683 30.955685 40.101684 42.915836 0 12.31192-5.276537 34.473377-40.101684 43.619375l-2.462384 0.351769c-3.869461 0.351769-16.53315 1.758846-83.369289 6.683614-34.121608 2.814153-58.745448 5.276537-73.519752 7.035383l-2.814154 45.72999c19.699072 1.407077 47.840605 3.517692 84.776366 5.980075 47.488835 3.517692 75.982137 5.628306 87.23875 6.683614l1.407076 0.351769c40.805222 7.738921 46.785297 30.603916 46.785297 43.971144 0 13.367228-5.980076 36.935761-46.433528 44.322913l-2.110615 0.351769-106.234283 7.387153c-54.875988 3.869461-90.404672 7.035383-105.882515 9.497767-2.462384 1.055307-4.572999 1.055307-6.683614 1.055307zM707.055995 329.959464l-2.462385 0.351769c-9.849536 1.055307-17.588458 4.22123-23.568533 10.201306-7.387152 6.683614-7.738921 11.960151-7.387152 16.53315 2.462384 22.513226 5.980076 74.57506 10.553075 154.426657 4.924768 81.258674 8.44246 132.61697 10.553074 152.316043 2.462384 22.161457 8.09069 28.493301 10.553075 28.84507l3.86946 1.055308 1.055308 0.351769c0.351769 0.351769 0.703538 0.351769 1.407076 0 16.884919-2.462384 52.413604-5.628306 108.696668-9.849536l105.178977-7.387153c7.738921-1.407077 16.884919-4.572999 16.884919-9.497767 0-4.924768-10.553075-7.738921-17.236689-9.145998-11.256613-1.055307-40.805222-3.165922-85.479903-6.331844-49.59945-3.165922-84.424596-5.980076-102.716593-7.387152l-16.884919-1.407077 7.738921-119.601512 19.699073 7.738922c13.367228-2.110615 41.50876-4.924768 83.721058-8.44246 46.433528-3.517692 73.519753-5.628306 80.906905-6.331845 12.663689-3.517692 12.663689-7.738921 12.663689-9.145998 0-3.517692-4.22123-6.331845-12.663689-8.794228l-81.258674-7.035383c-42.212298-3.165922-70.002061-5.628306-82.665751-7.035383h-18.291996l6.683614-106.586053 15.126074-1.407077c20.050842-1.758846 50.654758-4.22123 90.756441-7.035383l70.35383-4.924768c6.331845-1.407077 16.181381-4.572999 16.181381-9.497767 0-4.924768-8.44246-7.738921-15.829612-9.145998-11.960151-1.055307-45.72999-3.517692-100.605977-7.387152-54.875988-4.22123-88.645826-6.683614-103.068361-8.090691l-2.110615-0.351769h-0.351769z m43.267605 202.267262z" fill="#313433" p-id="10913"></path><path d="M1277.625558 328.904157c10.904844 7.738921 17.940227 17.588458 20.402611 29.900378 2.462384 12.663689 0 23.568533-7.387152 33.0663-8.794229 11.256613-40.453452 49.95122-95.32944 115.732051 55.579526 77.389213 88.294057 124.878049 98.143593 141.762968 16.181381 25.327379 17.588458 42.915836 4.924768 52.061834l-2.110615 1.407077c-12.663689 9.145998-29.19684 2.110615-49.247681-20.402611L1206.56819 635.646857c-24.272071-27.789763-44.674682-51.006527-60.504294-69.650292-36.583992 43.619375-70.002061 82.665751-100.605978 117.842666-18.995534 21.457918-34.473377 27.789763-46.785297 18.995534l-2.110615-1.407077c-13.015459-9.145998-12.31192-25.679148 2.462384-49.951219 8.44246-14.070766 40.453452-61.559602 96.736517-142.466507-51.358296-58.393679-85.479904-96.736517-102.364823-114.324974-8.794229-9.497767-11.960151-20.75438-9.497767-34.473377 2.462384-13.015459 8.794229-23.568533 19.699072-31.659224l2.462384-1.407076c10.553075-7.738921 22.513226-10.553075 35.528685-9.145998 13.015459 2.110615 23.216764 8.44246 30.603916 18.995534l72.816214 101.309516c34.473377-49.59945 56.634833-83.369289 66.836139-101.661285 5.628306-10.553075 15.126074-16.884919 28.141532-18.643765 12.31192-1.758846 24.272071 1.407077 35.528684 9.145998l2.110615 1.758846z" fill="#FFFFFF" p-id="10914"></path><path d="M1285.36448 721.126761c-12.663689 0-28.493301-7.035383-48.192374-29.19684l-40.805222-46.785297c-18.995534-21.809687-35.880453-40.805222-49.951219-57.338372-32.362762 38.342838-62.614909 73.871522-90.404672 105.178976-30.603916 34.473377-52.413604 30.603916-65.429062 21.10615l-2.110615-1.407077c-13.718997-9.497767-24.97561-29.548609-1.407077-68.946754 8.09069-13.718997 37.991068-57.690141 91.10821-134.024046-47.137066-53.468911-78.79629-88.997595-94.625901-105.530746-11.608382-12.663689-16.181381-28.84507-13.015459-46.785297 2.814153-16.53315 11.256613-30.252147 24.97561-40.453453l1.055307-0.703538 2.110615-1.055307c13.367228-9.497767 28.84507-13.367228 45.026451-11.256613h0.35177c16.884919 2.462384 30.252147 10.904844 40.101683 24.97561l60.856063 84.776365c27.437994-40.101683 46.081759-68.243215 54.524219-84.072827 7.738921-14.422535 21.106149-23.568533 38.694606-25.679148 15.829612-2.110615 30.955685 1.758846 45.378221 11.256613l2.462384 1.758845c13.718997 9.849536 22.513226 22.513226 26.030917 38.342838v0.351769c3.165922 16.884919-0.351769 31.659224-10.201305 44.322913-8.44246 10.904844-37.991068 47.137066-88.645826 107.641361 52.061834 73.167984 82.313981 116.787358 92.515286 134.024046 25.679148 40.453452 14.774304 60.856063 1.407077 70.7056l-2.110615 1.758846c-5.276537 4.22123-11.960151 7.035383-19.699072 7.035383zM1012.039849 340.512539c-7.387152 5.628306-11.960151 13.015459-13.718997 22.513225-1.407077 9.145998 0.351769 16.53315 5.980076 22.513226 16.53315 17.588458 51.358296 56.283064 102.364823 114.676743l7.387152 8.44246-6.331845 9.145998c-55.579526 80.203367-87.942288 128.043971-96.384747 141.411199-5.628306 9.497767-14.070766 26.030917-6.683614 31.307454l2.462384 1.758846c7.035383 4.924768 22.864995-11.960151 27.789763-17.236688 30.603916-34.825146 64.373755-74.223291 100.605977-117.490897l10.553075-12.663689 10.904843 12.663689c16.181381 18.643765 36.232223 42.212298 60.504294 69.650292l40.805222 46.785297c4.924768 5.628306 22.161457 23.920302 30.252147 18.291996l1.758846-1.407076c7.738921-5.628306-3.165922-25.327379-8.44246-33.41807l-0.351769-0.351769c-9.849536-16.53315-42.564067-64.021986-97.440055-140.707661l-6.331845-8.794228 7.035383-8.44246c54.524218-65.429062 86.183442-104.123669 94.977671-115.380282 4.924768-6.331845 6.331845-13.015459 4.924768-21.809687-2.110615-8.794229-6.683614-15.829612-14.774304-21.457918l-2.110615-1.407077c-8.44246-5.628306-16.884919-7.738921-25.679148-6.683614-8.794229 1.055307-14.070766 4.572999-17.588458 11.256613-10.553075 18.995534-32.362762 52.765373-67.539677 103.068361l-11.256613 16.181381-84.424596-117.490896c-5.276537-7.738921-11.960151-11.960151-21.106149-13.367228-9.497767-1.055307-17.588458 1.055307-25.327379 6.683614l-1.055307 0.703538-1.758846 1.055308z" fill="#313433" p-id="10915"></path><path d="M1285.01271 710.573686c-11.608382 0-24.97561-8.44246-40.101683-25.679148l-40.453452-46.785297c-22.864995-26.030917-42.212298-48.192374-58.04191-66.48437-35.176915 41.860529-68.243215 80.555136-98.143594 114.676744-20.402611 22.864995-37.639299 29.548609-51.358296 19.699072l-2.110615-1.407077c-14.774304-10.201305-14.070766-28.493301 1.758846-54.875987 8.44246-14.070766 39.398145-59.800756 95.32944-140.355892-50.302989-56.986603-84.072827-94.625902-100.254208-112.214359-9.497767-10.201305-13.015459-22.864995-10.553074-37.639299 2.462384-14.070766 9.497767-25.327379 20.754379-33.769839l0.35177-0.351769 2.462384-1.407076c11.256613-8.09069 23.920302-11.256613 37.991068-9.497768 14.070766 2.110615 24.97561 9.145998 33.0663 20.402611l69.650292 97.088286c32.714531-46.785297 53.82068-79.851597 63.670217-97.440055 6.331845-11.608382 16.53315-18.643765 30.603916-20.402611 13.015459-1.758846 26.030917 1.407077 37.991068 9.497767l2.110615 1.407077c11.608382 8.09069 18.995534 18.995534 21.809688 32.010993 2.462384 13.718997-0.351769 26.030917-8.090691 35.880453-8.794229 11.256613-40.101683 49.59945-93.570594 113.621436 55.227757 77.037444 86.88698 122.767434 96.736516 140.004122 17.236688 27.086225 18.291996 46.081759 4.22123 56.634834l-2.110615 1.407076c-4.22123 4.572999-8.794229 5.980076-13.718997 5.980076z m-138.597045-149.501889l2.814153 3.165922c16.181381 18.643765 36.583992 42.212298 60.504294 69.650292l40.453452 46.785297c18.643765 21.106149 33.418069 27.789763 44.322913 20.050842l1.758846-1.407077c10.904844-8.09069 8.794229-23.920302-5.980075-47.488835-9.849536-16.884919-42.915836-64.373755-98.143594-141.762968l-1.407076-2.110615 1.758846-2.110615c54.524218-65.429062 86.535211-104.475438 94.97767-115.732051 6.683614-8.794229 9.145998-18.643765 6.683614-30.252147-2.462384-11.608382-8.794229-20.75438-18.995534-27.789763l-2.110615-1.407077c-10.553075-7.035383-21.457918-9.849536-33.0663-8.442459-11.960151 1.407077-20.402611 7.035383-25.327379 16.884919-10.201305 18.291996-32.714531 52.765373-66.836139 102.013054l-2.814153 4.22123L1069.378221 340.160769c-7.035383-9.849536-16.181381-15.829612-28.141533-17.588457-11.960151-1.407077-22.864995 1.055307-33.0663 8.44246l-2.462384 1.407076c-9.849536 7.387152-15.829612 17.236688-17.940227 29.19684-2.110615 12.663689 0.703538 22.864995 8.794229 31.659223 16.53315 17.588458 51.006527 56.283064 102.364823 114.324975l1.758846 2.110615-1.407077 2.110614c-55.931295 80.555136-88.294057 128.39574-96.736516 142.114738-20.402611 33.769839-7.738921 42.564067-3.517692 45.37822l2.110615 1.758846c10.201305 7.387152 24.272071 1.055307 41.860529-18.643765 30.603916-34.825146 64.373755-74.57506 100.605978-117.842666l2.814153-3.517691z" fill="#313433" p-id="10916"></path><path d="M1010.281003 724.996221c-8.794229 0-15.829612-3.165922-21.457918-7.387152l-2.110615-1.407077c-12.31192-8.794229-28.493301-29.548609-2.110615-73.519752 8.09069-13.718997 37.639299-56.986603 89.349365-131.913432-46.081759-52.061834-77.037444-86.88698-92.867056-103.420131-12.31192-13.367228-17.236688-30.603916-14.070767-49.59945 3.165922-17.588458 11.960151-32.010993 26.382687-42.564067l1.407076-1.055308 2.110615-1.055307c14.070766-9.849536 30.252147-13.718997 47.488836-11.608382 17.940227 2.814153 32.714531 11.960151 42.915836 26.382686l58.04191 80.555136c26.030917-37.639299 43.267606-64.373755 51.358296-79.499828 8.44246-15.477843 22.513226-25.327379 41.156991-27.437994 16.53315-2.110615 32.714531 1.758846 47.840605 11.960151l2.462384 1.758846c14.422535 10.201305 23.920302 23.920302 27.437994 40.453452v0.351769c3.165922 17.588458-0.703538 34.121608-10.904844 47.137067-8.44246 10.904844-37.639299 46.433528-86.886981 105.882514 51.358296 71.760907 81.258674 115.028513 91.108211 131.913432 27.086225 42.564067 15.126074 64.725524 0.351769 75.278598l-2.110615 1.758846c-6.683614 4.572999-14.070766 7.035383-21.809687 7.035383-16.181381 0-32.714531-9.849536-50.654758-30.252147l-40.805222-46.785297c-17.940227-20.050842-33.769839-38.342838-47.137066-54.172449-31.307454 37.28753-60.856063 71.409138-87.590519 102.364823-19.699072 21.457918-35.880453 28.84507-48.895912 28.84507z m3.517692-381.669529c-6.683614 5.276537-10.553075 11.608382-12.311921 20.050841-1.407077 8.44246 0 14.070766 4.924768 19.347304 16.53315 17.588458 51.358296 56.283064 102.716593 114.676743l9.145998 10.201306-7.738922 11.256612c-55.579526 80.203367-87.942288 127.692202-96.032978 141.411199-1.407077 2.462384-13.367228 22.513226-7.738921 26.734456l2.462384 1.758846c1.407077 1.055307 9.497767-1.407077 22.864994-16.53315 30.603916-34.825146 64.373755-74.223291 100.254209-117.490897l13.367227-15.829612 13.367228 15.829612c15.829612 18.643765 36.232223 42.212298 60.504294 69.650292l40.805222 46.785297c14.070766 16.181381 22.864995 19.347303 25.679148 17.940227l1.758846-1.407077c3.165922-2.110615 0.703538-12.663689-9.497767-28.493301l-0.35177-0.351769c-9.849536-16.53315-42.564067-63.670216-97.440055-140.707661l-7.738921-10.904844 8.794229-10.553074c54.172449-65.077293 86.183442-104.123669 94.625902-115.380282 4.22123-5.628306 5.628306-11.256613 4.221229-18.995534-1.758846-7.738921-5.980076-14.070766-13.367227-18.995534l-2.110615-1.758846c-7.387152-4.924768-15.126074-7.035383-22.864995-5.980075-9.497767 1.055307-12.663689 5.276537-14.774304 9.497767-10.201305 18.995534-33.0663 53.82068-67.891447 103.42013l-14.070766 20.402611-87.238749-121.360357c-4.924768-7.035383-10.553075-10.553075-18.643765-11.960151-8.44246-1.055307-15.829612 0.703538-22.864995 5.980075l-1.055308 0.703538-1.758845 1.055308z" fill="#313433" p-id="10917"></path><path d="M1351.49708 399.961525c-9.849536 1.407077-17.940227-2.462384-24.97561-10.904843-6.683614-8.44246-9.849536-18.995534-9.849536-32.010993 0-13.015459 3.517692-23.568533 10.553075-31.659224 6.683614-8.09069 14.774304-11.256613 24.62384-9.849536 15.829612 1.407077 56.986603 4.22123 123.822742 8.44246 69.650292 4.22123 110.455514 7.035383 122.767433 8.09069 22.513226 3.517692 33.418069 11.960151 33.41807 24.97561 0 13.718997-11.256613 22.513226-33.41807 26.030917-5.276537 0.703538-16.181381 1.407077-32.010992 2.462384l-46.081759 3.165922v5.628307c-1.758846 16.884919-4.572999 63.318447-9.145998 138.948815-4.22123 75.278598-7.387152 121.360357-9.497767 138.245276-2.462384 25.679148-11.256613 38.694607-26.734456 38.694607-15.477843 0-24.623841-13.015459-27.437994-38.694607-1.758846-16.53315-4.572999-62.26314-9.145998-137.893507-4.22123-74.926829-7.387152-121.360357-9.497767-139.300584-39.398145 2.110615-65.077293 4.22123-77.389213 5.628306z" fill="#FFFFFF" p-id="10918"></path><path d="M1474.616283 723.940914c-13.367228 0-36.232223-6.683614-41.50876-51.006527-1.758846-16.884919-4.572999-62.26314-9.145998-138.597046-3.517692-60.152525-6.331845-102.013054-8.09069-125.229818-30.955685 2.110615-52.061834 3.517692-62.614909 4.924768-10.201305 1.407077-24.97561-0.351769-37.991069-16.181381-8.794229-10.904844-13.015459-24.623841-13.015458-40.805221 0-16.53315 4.572999-30.252147 14.070766-40.805222 9.497767-11.256613 22.161457-16.53315 36.583992-14.774304 15.829612 1.407077 57.338372 4.22123 123.119203 8.442459 70.35383 4.572999 110.455514 7.035383 123.119203 8.090691h1.055307c37.639299 6.331845 45.378221 24.623841 45.378221 39.046376 0 12.31192-5.980076 33.418069-45.378221 40.101683h-0.351769c-5.628306 0.703538-16.53315 1.407077-33.0663 2.462384l-33.41807 2.110615c-1.758846 20.75438-4.572999 64.725524-8.442459 131.913432-4.22123 75.982137-7.387152 121.360357-9.497767 138.948815-4.22123 44.674682-27.437994 51.358296-40.805222 51.358296z m-33.418069-344.733769l1.407076 13.367228c2.110615 18.291996 5.276537 64.373755 9.497767 140.004122 4.22123 74.926829 7.387152 121.008588 9.145998 137.189969 2.110615 17.236688 6.683614 26.030917 13.718997 26.030918 6.683614 0 10.904844-8.794229 12.66369-25.679148v-0.35177c2.110615-16.53315 5.276537-62.966678 9.497767-137.541738 4.22123-75.278598 7.387152-121.008588 9.145998-138.597045v-17.940227l59.097217-3.869461c15.477843-1.055307 26.030917-1.758846 30.955685-2.462384 9.849536-1.758846 21.457918-4.924768 21.457919-12.31192 0-6.683614-14.422535-9.849536-21.106149-11.256613-13.015459-1.055307-52.765373-3.517692-122.063896-8.090691-66.48437-4.22123-108.344899-7.035383-124.17451-8.442459h-0.703539c-3.517692-0.351769-7.387152-0.351769-11.960151 4.924768-4.924768 5.628306-7.387152 13.015459-7.387152 22.513226 0 9.849536 2.110615 17.588458 7.035383 23.216764 4.924768 5.980076 8.794229 6.331845 12.31192 5.980075 12.663689-1.758846 38.342838-3.869461 78.092752-5.980075l13.367228-0.703539z" fill="#313433" p-id="10919"></path><path d="M1474.616283 713.387839c-17.236688 0-27.789763-14.070766-30.955685-41.860529-1.758846-16.53315-4.572999-62.966678-9.145998-137.893507-4.22123-70.35383-7.035383-115.732051-9.145998-135.782893-36.935761 2.110615-61.559602 4.22123-73.519753 5.628307-10.904844 1.407077-20.402611-2.462384-28.141532-12.311921-7.035383-8.794229-10.904844-20.402611-10.904844-34.121607 0-13.718997 3.869461-25.327379 11.256613-33.769839 7.387152-8.794229 16.884919-12.663689 27.789763-11.256613 15.477843 1.407077 57.338372 4.22123 123.470972 8.44246 70.35383 4.22123 110.455514 7.035383 122.767434 8.09069 24.623841 3.869461 36.935761 13.718997 36.935761 28.493302 0 15.477843-12.31192 25.679148-36.583992 29.548608-5.628306 0.703538-16.181381 1.407077-32.362762 2.462385l-42.915836 2.814153v2.110615c-1.758846 17.236688-4.572999 64.021986-9.145998 138.948815-4.22123 75.982137-7.387152 121.360357-9.497767 138.597045-2.110615 27.789763-12.31192 41.860529-29.900378 41.860529zM1431.700447 390.463758l0.351769 3.165923c2.110615 17.940227 5.276537 65.077293 9.497767 139.652353 4.22123 75.278598 7.387152 121.360357 9.145998 137.541738 2.814153 23.920302 10.553075 35.528684 23.920302 35.528684 4.924768 0 19.699072 0 23.216764-35.528684 2.110615-16.884919 5.276537-63.318447 9.497767-138.245277 4.22123-75.278598 7.387152-122.063896 9.145998-138.948814v-8.44246l49.247681-3.165922c16.181381-1.055307 26.734456-1.758846 32.010993-2.462385 20.402611-3.517692 30.603916-10.904844 30.603916-22.513225 0-11.256613-9.849536-18.291996-30.603916-21.457918-11.960151-1.055307-52.061834-3.517692-122.415665-8.090691-66.48437-4.22123-107.99313-7.035383-123.822741-8.44246-8.794229-1.055307-15.829612 1.758846-21.457918 8.794229-6.331845 7.387152-9.849536 17.236688-9.849536 29.19684 0 12.31192 3.165922 22.161457 9.145997 29.900378 6.331845 7.738921 13.367228 10.904844 21.809688 9.849536 12.31192-1.758846 38.342838-3.869461 77.389213-5.980076l3.165923-0.351769z" fill="#313433" p-id="10920"></path><path d="M1474.616283 727.458605c-14.422535 0-39.398145-7.035383-45.026451-54.172449-1.758846-16.884919-4.924768-63.318447-9.145998-138.948815-3.165922-56.986603-5.980076-97.791824-7.738922-121.712126-29.19684 1.758846-48.895912 3.517692-58.745448 4.924768-10.904844 1.407077-27.086225-0.351769-41.156991-17.236689-9.145998-11.608382-14.070766-26.030917-14.070766-43.267605s4.924768-32.010993 14.774305-43.267606c10.201305-12.31192 24.272071-17.940227 39.749914-15.829612 15.829612 1.407077 57.338372 4.22123 123.119203 8.44246 70.35383 4.572999 110.807283 7.035383 123.119203 8.09069h1.055307c42.212298 7.035383 48.544143 29.548609 48.544143 42.564068 0 13.367228-6.331845 36.583992-48.192374 43.267605h-0.351769c-5.980076 0.703538-16.53315 1.407077-33.418069 2.462384l-30.603916 2.110615c-1.758846 22.161457-4.572999 65.077293-8.090691 128.74751-4.22123 75.982137-7.387152 121.712126-9.497767 139.300584-4.572999 47.488835-29.548609 54.524218-44.322913 54.524218z m-30.252147-352.12092l1.758846 16.53315c2.110615 18.291996 5.276537 65.429062 9.497767 140.355891 4.22123 74.926829 7.387152 121.008588 8.794229 137.189969 0.703538 6.683614 3.517692 22.864995 10.201305 22.864995 6.331845 0 8.44246-17.236688 9.145998-22.513226v-0.351769c2.110615-16.53315 5.276537-62.966678 9.497767-137.541738 4.22123-74.223291 7.387152-121.008588 9.145998-138.948815v-21.106149l62.614909-4.22123c15.477843-1.055307 25.679148-1.758846 30.603916-2.462384 3.517692-0.703538 18.291996-3.517692 18.291996-8.794229 0-1.758846-4.924768-5.276537-18.291996-7.738921-12.663689-1.055307-53.82068-3.517692-121.712126-7.738921-66.48437-4.22123-108.344899-7.035383-124.174511-8.44246h-0.703538c-3.165922-0.351769-5.628306 0-8.794229 3.869461-4.572999 4.924768-6.331845 11.608382-6.331845 20.402611s2.110615 15.829612 6.331845 21.106149c3.869461 4.572999 6.331845 4.924768 8.794229 4.572999h0.351769c12.663689-1.758846 39.046376-3.869461 78.444521-5.980076l16.53315-1.055307z" fill="#313433" p-id="10921"></path></svg>